<?xml version="1.0" ?><svg style="enable-background:new 0 0 24 24;" version="1.1" viewBox="0 0 24 24" xml:space="preserve" xmlns="http://www.w3.org/2000/svg" xmlns:xlink="http://www.w3.org/1999/xlink"><style type="text/css">
	.st0{opacity:0.2;fill:none;stroke:#000000;stroke-width:5.000000e-02;stroke-miterlimit:10;}
</style><g id="grid_system"/><g id="_icons"><path d="M3,16c0,2.8,2.2,5,5,5h8c2.7,0,4.9-2.2,5-4.9c0,0,0,0,0-0.1c0,0,0-0.1,0-0.1V8c0-2.8-2.2-5-5-5H8C5.2,3,3,5.2,3,8V16z    M16,19H8c-1.7,0-3-1.3-3-3v-0.4L9.5,13c0.9-0.5,2.1-0.5,3,0l6.4,3.6C18.7,17.9,17.5,19,16,19z M8,5h8c1.7,0,3,1.3,3,3v6.3   l-5.5-3.1c-1.5-0.9-3.4-0.8-5,0l-3.5,2V8C5,6.3,6.3,5,8,5z"/><circle cx="15.5" cy="8.5" r="1.5"/></g></svg>